<?xml version="1.0" encoding="UTF-8" standalone="no"?>
<svg width="384" height="64" viewBox="0 0 384 64" xmlns="http://www.w3.org/2000/svg">
  <!-- 住宅 (0, 0) -->
  <g transform="translate(0, 0)">
    <rect x="14" y="25" width="36" height="30" fill="#e1b16a" stroke="#8b4513" stroke-width="1" />
    <polygon points="14,25 50,25 32,10" fill="#a52a2a" stroke="#8b4513" stroke-width="1" />
    <rect x="22" y="35" width="8" height="12" fill="#87cefa" stroke="#4682b4" stroke-width="1" />
    <rect x="38" y="35" width="8" height="12" fill="#87cefa" stroke="#4682b4" stroke-width="1" />
    <rect x="30" y="43" width="8" height="12" fill="#8b4513" stroke="#8b4513" stroke-width="1" />
  </g>

  <!-- 工場 (1, 0) -->
  <g transform="translate(64, 0)">
    <rect x="10" y="30" width="44" height="25" fill="#708090" stroke="#2f4f4f" stroke-width="1" />
    <rect x="20" y="15" width="8" height="15" fill="#708090" stroke="#2f4f4f" stroke-width="1" />
    <rect x="36" y="15" width="8" height="15" fill="#708090" stroke="#2f4f4f" stroke-width="1" />
    <rect x="18" y="38" width="10" height="17" fill="#2f4f4f" />
    <rect x="36" y="38" width="10" height="12" fill="#2f4f4f" />
    <path d="M20,15 C20,10 28,10 28,15" fill="#e74c3c" stroke="#c0392b" stroke-width="1" />
    <path d="M36,15 C36,8 44,8 44,15" fill="#e74c3c" stroke="#c0392b" stroke-width="1" />
  </g>

  <!-- 道路 (2, 0) -->
  <g transform="translate(128, 0)">
    <rect x="10" y="10" width="44" height="44" fill="#7f8c8d" stroke="#2c3e50" stroke-width="1" />
    <line x1="10" y1="32" x2="54" y2="32" stroke="#f1c40f" stroke-width="2" stroke-dasharray="5,5" />
    <circle cx="32" cy="19" r="5" fill="#34495e" />
    <circle cx="32" cy="45" r="5" fill="#34495e" />
  </g>

  <!-- 学校 (3, 0) -->
  <g transform="translate(192, 0)">
    <rect x="12" y="20" width="40" height="30" fill="#ecf0f1" stroke="#7f8c8d" stroke-width="1" />
    <rect x="22" y="50" width="20" height="4" fill="#7f8c8d" />
    <polygon points="12,20 52,20 32,8" fill="#e74c3c" stroke="#c0392b" stroke-width="1" />
    <rect x="20" y="30" width="8" height="14" fill="#3498db" stroke="#2980b9" stroke-width="1" />
    <rect x="36" y="30" width="8" height="14" fill="#3498db" stroke="#2980b9" stroke-width="1" />
    <rect x="28" y="44" width="8" height="6" fill="#7f8c8d" />
  </g>

  <!-- 公園 (4, 0) -->
  <g transform="translate(256, 0)">
    <rect x="10" y="10" width="44" height="44" fill="#2ecc71" stroke="#27ae60" stroke-width="1" />
    <circle cx="25" cy="25" r="8" fill="#27ae60" />
    <path d="M25,17 Q20,12 25,8 Q30,12 25,17" fill="#27ae60" />
    <circle cx="40" cy="40" r="10" fill="#27ae60" />
    <path d="M40,30 Q34,24 40,18 Q46,24 40,30" fill="#27ae60" />
    <rect x="18" y="38" width="14" height="3" fill="#8b4513" />
  </g>

  <!-- 病院 (5, 0) -->
  <g transform="translate(320, 0)">
    <rect x="10" y="15" width="44" height="40" fill="#ecf0f1" stroke="#7f8c8d" stroke-width="1" />
    <rect x="25" y="55" width="14" height="4" fill="#7f8c8d" />
    <rect x="10" y="15" width="44" height="8" fill="#e74c3c" stroke="#c0392b" stroke-width="1" />
    <rect x="28" y="25" width="8" height="20" fill="#e74c3c" stroke="#c0392b" stroke-width="1" />
    <rect x="20" y="33" width="24" height="8" fill="#e74c3c" stroke="#c0392b" stroke-width="1" />
  </g>
</svg>
